<?xml version="1.0" encoding="UTF-8"?>
<svg xmlns="http://www.w3.org/2000/svg" xmlns:xlink="http://www.w3.org/1999/xlink" width="14px" height="14px" viewBox="0 0 14 14" version="1.1">
<g id="surface1">
<path style=" stroke:none;fill-rule:nonzero;fill:rgb(0%,0%,0%);fill-opacity:1;" d="M 13.109375 11.984375 C 13.644531 11.984375 14 11.605469 14 11.140625 L 14 4.378906 C 14 4.039062 13.820312 3.726562 13.542969 3.597656 C 13.265625 3.464844 12.949219 3.539062 12.738281 3.78125 L 11.316406 5.410156 C 11.027344 5.742188 10.558594 5.742188 10.269531 5.410156 L 7.523438 2.261719 C 7.234375 1.929688 6.765625 1.929688 6.476562 2.261719 L 3.730469 5.410156 C 3.441406 5.742188 2.972656 5.742188 2.683594 5.410156 L 1.261719 3.78125 C 1.050781 3.539062 0.730469 3.464844 0.457031 3.597656 C 0.179688 3.726562 0 4.039062 0 4.378906 L 0 11.140625 C 0 11.605469 0.359375 11.984375 0.890625 11.984375 Z M 13.109375 11.984375 "/>
</g>
</svg>
