<?xml version="1.0" encoding="UTF-8"?>
<svg xmlns="http://www.w3.org/2000/svg" xmlns:xlink="http://www.w3.org/1999/xlink" width="16px" height="16px" viewBox="0 0 16 16" version="1.1">
<g id="surface1">
<path style=" stroke:none;fill-rule:nonzero;fill:rgb(10.980392%,15.294118%,29.803922%);fill-opacity:1;" d="M 14.40625 9.042969 L 14.558594 7.417969 C 14.679688 6.140625 14.738281 5.503906 14.519531 5.242188 C 14.402344 5.097656 14.242188 5.011719 14.070312 4.996094 C 13.753906 4.96875 13.355469 5.421875 12.558594 6.328125 C 12.148438 6.796875 11.941406 7.03125 11.710938 7.070312 C 11.582031 7.089844 11.453125 7.066406 11.335938 7.007812 C 11.125 6.902344 10.984375 6.613281 10.699219 6.03125 L 9.207031 2.976562 C 8.675781 1.882812 8.40625 1.332031 8 1.332031 C 7.59375 1.332031 7.324219 1.882812 6.792969 2.976562 L 5.300781 6.03125 C 5.015625 6.613281 4.875 6.902344 4.664062 7.007812 C 4.546875 7.066406 4.417969 7.089844 4.289062 7.070312 C 4.058594 7.03125 3.851562 6.796875 3.441406 6.328125 C 2.644531 5.421875 2.246094 4.96875 1.929688 4.996094 C 1.757812 5.011719 1.597656 5.097656 1.480469 5.242188 C 1.261719 5.503906 1.320312 6.140625 1.441406 7.417969 L 1.59375 9.042969 C 1.847656 11.714844 1.972656 13.054688 2.761719 13.859375 C 3.546875 14.667969 4.730469 14.667969 7.09375 14.667969 L 8.90625 14.667969 C 11.269531 14.667969 12.453125 14.667969 13.238281 13.859375 C 14.027344 13.054688 14.152344 11.714844 14.40625 9.042969 Z M 14.40625 9.042969 "/>
</g>
</svg>
