<?xml version="1.0" encoding="UTF-8"?>
<svg xmlns="http://www.w3.org/2000/svg" xmlns:xlink="http://www.w3.org/1999/xlink" width="18px" height="18px" viewBox="0 0 18 18" version="1.1">
<g id="surface1">
<path style=" stroke:none;fill-rule:nonzero;fill:rgb(0%,0%,0%);fill-opacity:1;" d="M 9.621094 2.582031 C 9.484375 2.375 9.25 2.25 9 2.25 C 8.75 2.25 8.515625 2.375 8.378906 2.582031 L 5.542969 6.808594 L 2.0625 2.890625 C 1.835938 2.636719 1.472656 2.566406 1.167969 2.714844 C 0.863281 2.863281 0.699219 3.199219 0.765625 3.53125 L 2.777344 13.929688 C 2.984375 14.984375 3.910156 15.75 4.988281 15.75 L 13.011719 15.75 C 14.089844 15.75 15.015625 14.984375 15.222656 13.929688 L 17.238281 3.53125 C 17.300781 3.199219 17.136719 2.863281 16.832031 2.714844 C 16.527344 2.566406 16.164062 2.636719 15.9375 2.890625 L 12.457031 6.808594 Z M 9.621094 2.582031 "/>
</g>
</svg>
