<!DOCTYPE svg PUBLIC "-//W3C//DTD SVG 1.1//EN" "http://www.w3.org/Graphics/SVG/1.1/DTD/svg11.dtd">
<!-- Uploaded to: SVG Repo, www.svgrepo.com, Transformed by: SVG Repo Mixer Tools -->
<svg version="1.1" id="_x32_" xmlns="http://www.w3.org/2000/svg" xmlns:xlink="http://www.w3.org/1999/xlink" width="64px" height="64px" viewBox="0 0 512 512" xml:space="preserve" fill="#000000">
<g id="SVGRepo_bgCarrier" stroke-width="0"/>
<g id="SVGRepo_tracerCarrier" stroke-linecap="round" stroke-linejoin="round"/>
<g id="SVGRepo_iconCarrier"> <style type="text/css">  .st0{fill:#000000;}  </style> <g> <path class="st0" d="M479.422,438.355c19.516,0,32.578-13.859,32.578-30.969V160.184c0-12.531-6.594-23.828-16.688-28.609 c-10.109-4.813-21.719-2.156-29.453,6.703l-52.016,59.625c-10.563,12.094-27.672,12.094-38.219,0L275.109,82.715 c-10.547-12.094-27.672-12.094-38.219,0L136.375,197.902c-10.547,12.094-27.656,12.094-38.219,0l-52.016-59.625 c-7.734-8.859-19.359-11.516-29.453-6.703C6.594,136.355,0,147.652,0,160.184v247.203c0,17.109,13.109,30.969,32.625,30.969 H479.422z"/> </g> </g>
</svg>