<?xml version="1.0" encoding="UTF-8"?>
<svg xmlns="http://www.w3.org/2000/svg" xmlns:xlink="http://www.w3.org/1999/xlink" width="18px" height="18px" viewBox="0 0 18 18" version="1.1">
<g id="surface1">
<path style=" stroke:none;fill-rule:nonzero;fill:rgb(10.980392%,15.294118%,29.803922%);fill-opacity:1;" d="M 16.207031 10.171875 L 16.378906 8.34375 C 16.511719 6.910156 16.582031 6.191406 16.335938 5.898438 C 16.203125 5.734375 16.023438 5.636719 15.828125 5.621094 C 15.472656 5.589844 15.023438 6.101562 14.128906 7.121094 C 13.664062 7.648438 13.433594 7.910156 13.175781 7.953125 C 13.03125 7.972656 12.886719 7.953125 12.753906 7.886719 C 12.515625 7.765625 12.355469 7.4375 12.039062 6.785156 L 10.359375 3.347656 C 9.757812 2.117188 9.457031 1.5 9 1.5 C 8.542969 1.5 8.242188 2.117188 7.640625 3.347656 L 5.960938 6.785156 C 5.644531 7.4375 5.484375 7.765625 5.246094 7.886719 C 5.113281 7.953125 4.96875 7.972656 4.824219 7.953125 C 4.566406 7.910156 4.335938 7.648438 3.871094 7.121094 C 2.976562 6.101562 2.527344 5.589844 2.171875 5.621094 C 1.976562 5.636719 1.796875 5.734375 1.664062 5.898438 C 1.417969 6.191406 1.488281 6.910156 1.621094 8.34375 L 1.792969 10.171875 C 2.078125 13.179688 2.21875 14.683594 3.105469 15.59375 C 3.992188 16.5 5.320312 16.5 7.980469 16.5 L 10.019531 16.5 C 12.679688 16.5 14.007812 16.5 14.894531 15.59375 C 15.78125 14.683594 15.921875 13.179688 16.207031 10.171875 Z M 16.207031 10.171875 "/>
</g>
</svg>
